<svg width="512" height="512" viewBox="0 0 512 512" fill="none" xmlns="http://www.w3.org/2000/svg">
  <defs>
    <linearGradient id="weaz-mobile-lockup-bg" x1="0" y1="0" x2="512" y2="512" gradientUnits="userSpaceOnUse">
      <stop offset="0" stop-color="#16233f"/>
      <stop offset="1" stop-color="#4b5670"/>
    </linearGradient>
    <linearGradient id="weaz-mobile-lockup-gold" x1="190" y1="82" x2="330" y2="362" gradientUnits="userSpaceOnUse">
      <stop offset="0" stop-color="#fff1a8"/>
      <stop offset=".34" stop-color="#d8b24a"/>
      <stop offset=".68" stop-color="#f8dc78"/>
      <stop offset="1" stop-color="#9f6419"/>
    </linearGradient>
  </defs>
  <rect width="512" height="512" rx="22" fill="url(#weaz-mobile-lockup-bg)"/>
  <rect x="126" y="74" width="260" height="364" stroke="#b46e24" stroke-width="3"/>
  <rect x="132" y="80" width="248" height="352" stroke="#e6c266" stroke-width="1.4"/>
  <path d="M253 114c14 0 25 11 25 25s-11 25-25 25-25-11-25-25 11-25 25-25Z" fill="url(#weaz-mobile-lockup-gold)"/>
  <path d="M225 176 259 216l-10 68c-4 28 0 56 13 84l8 18c-40-44-59-90-58-137l-40 5 34-78Z" fill="url(#weaz-mobile-lockup-gold)"/>
  <path d="M264 174 315 236l-14 64h-62l10-75 15-51Z" fill="url(#weaz-mobile-lockup-gold)"/>
  <text x="256" y="368" text-anchor="middle" fill="url(#weaz-mobile-lockup-gold)" font-family="Georgia, 'Times New Roman', serif" font-size="54" letter-spacing="10">WEAZ</text>
  <text x="256" y="398" text-anchor="middle" fill="#d8b24a" font-family="Arial, sans-serif" font-size="15" letter-spacing="11">JUST WEAR</text>
</svg>
