<svg width="64" height="96" viewBox="0 0 64 96" fill="none" xmlns="http://www.w3.org/2000/svg" preserveAspectRatio="xMidYMid meet">
  <defs>
    <linearGradient id="weaz-mobile-gold" x1="17" y1="7" x2="48" y2="91" gradientUnits="userSpaceOnUse">
      <stop offset="0" stop-color="#fff1a8"/>
      <stop offset="0.34" stop-color="#d8b24a"/>
      <stop offset="0.68" stop-color="#f8dc78"/>
      <stop offset="1" stop-color="#9f6419"/>
    </linearGradient>
  </defs>
  <path d="M35.2 8.2c5.2 0 9.2 4.1 9.2 9.3s-4 9.4-9.2 9.4-9.3-4.1-9.3-9.4 4.1-9.3 9.3-9.3Z" fill="url(#weaz-mobile-gold)"/>
  <path d="M28.1 29.1 40.5 43.8 36.9 60c-2.3 10.1-.9 20 4.8 30.2C30.6 80.8 25 69.1 25.4 55.8l-9.2 1.5 11.9-28.2Z" fill="url(#weaz-mobile-gold)"/>
  <path d="M40.9 29.1 51.9 45.4 46.8 63.1H31.6l5.1-19.1 4.2-14.9Z" fill="url(#weaz-mobile-gold)"/>
  <path d="M28.4 27.7 41.7 43.2" stroke="#fff6bd" stroke-width="1.45" stroke-linecap="round" opacity=".78"/>
</svg>
