<svg width="152" height="280" viewBox="180 96 152 280" fill="none" xmlns="http://www.w3.org/2000/svg" role="img" aria-labelledby="title desc" preserveAspectRatio="xMidYMid meet">
  <title id="title">WEAZ logo mark</title>
  <desc id="desc">A tall abstract gold fashion silhouette with a circular head, angular collar, and flowing lower form.</desc>
  <defs>
    <linearGradient id="weaz-gold" x1="190" y1="82" x2="330" y2="362" gradientUnits="userSpaceOnUse">
      <stop offset="0" stop-color="#fff1a8"/>
      <stop offset="0.34" stop-color="#d8b24a"/>
      <stop offset="0.68" stop-color="#f8dc78"/>
      <stop offset="1" stop-color="#9f6419"/>
    </linearGradient>
  </defs>
  <path d="M257 104c14 0 25 11 25 25s-11 25-25 25-25-11-25-25 11-25 25-25Z" fill="url(#weaz-gold)"/>
  <path d="M224 170 275 231l-15 64c-6 25-1 49 14 72-37-34-56-74-54-121l-42 6 46-82Z" fill="url(#weaz-gold)"/>
  <path d="M277 170 323 238l-21 73h-63l21-79 17-62Z" fill="url(#weaz-gold)"/>
  <path d="M225 165 281 230" stroke="#fff6bd" stroke-width="4" stroke-linecap="round" opacity=".75"/>
</svg>
